PathFileType	4	(X/Y/Z)	C:\Users\WrightLab\Desktop\Jo\P1_boxCal20.trc
DataRate	CameraRate	NumFrames	NumMarkers	Units	OrigDataRate	OrigDataStartFrame	OrigNumFrames
100.00	100.00	       61	19	mm	100.00	1	       937
Frame#	Time	Headset_Front			Headset_Back			Headset_Left			Headset_Right			Left_Shoulder			Right_Shoulder			Sternum			C7			Left Elbow			Right Elbow			Left Wrist			Right Wrist			Left ASIS			Right ASIS			S2			Left Knee			Right Knee			Left Ankle			Right Ankle			
		X1	Y1	Z1	X2	Y2	Z2	X3	Y3	Z3	X4	Y4	Z4	X5	Y5	Z5	X6	Y6	Z6	X7	Y7	Z7	X8	Y8	Z8	X9	Y9	Z9	X10	Y10	Z10	X11	Y11	Z11	X12	Y12	Z12	X13	Y13	Z13	X14	Y14	Z14	X15	Y15	Z15	X16	Y16	Z16	X17	Y17	Z17	X18	Y18	Z18	X19	Y19	Z19	

1	0.000																																																	-187.53326	505.32507	2460.17334							
2	0.010																																																	-187.55038	505.37073	2460.20679							
3	0.020																																																	-187.61134	505.36163	2460.23535							
4	0.030																																																	-187.76367	505.25897	2460.38086							
5	0.040																																																	-187.77686	505.21982	2460.36743							
6	0.050																																																	-187.77658	505.30353	2460.41138							
7	0.060																																																	-187.79915	505.31226	2460.42822							
8	0.070																																																	-187.74225	505.31934	2460.40088							
9	0.080																																																	-187.56770	505.37674	2460.21924							
10	0.090																																																	-187.54419	505.34451	2460.18945							
11	0.100																																																	-187.48921	505.39307	2460.18506							
12	0.110																																																	-187.42868	505.32159	2460.11450							
13	0.120																																																	-187.30769	505.40121	2459.85986							
14	0.130																																																	-186.79622	504.73880	2459.31787							
15	0.140																																																	-186.78841	504.75217	2459.32056							
16	0.150																																																	-186.67368	504.71915	2459.18457							
17	0.160																																																	-186.66055	504.69781	2459.16626							
18	0.170																																																	-186.61711	504.76193	2458.92383							
19	0.180																																																	-186.50746	504.74121	2458.63916							
20	0.190																																																	-186.46481	504.71042	2458.59961							
21	0.200																																																	-186.46342	504.74390	2458.61646							
22	0.210																																																	-186.38231	504.79736	2458.33032							
23	0.220																																																	-186.34796	504.72873	2458.27563							
24	0.230																																																	-186.27338	504.72421	2458.23242							
25	0.240																																																	-186.22078	504.66257	2458.17139							
26	0.250																																																	-186.12810	504.63123	2458.10400							
27	0.260																																																	-185.96571	504.43936	2458.08032							
28	0.270																																																	-185.65045	504.48611	2457.62891							
29	0.280																																																	-185.44133	504.48868	2457.37085							
30	0.290																																																	-185.45856	504.40189	2457.33447							
31	0.300																																																	-185.37572	504.49930	2457.08936							
32	0.310																																																	-185.16299	504.57303	2456.66504							
33	0.320																																																	-185.12274	504.45935	2456.58325							
34	0.330																																																	-184.96577	504.60617	2456.17212							
35	0.340																																																	-184.80290	504.66190	2456.01196							
36	0.350																																																	-184.62105	504.58563	2455.97632							
37	0.360																																																	-184.27483	504.75098	2455.23267							
38	0.370																																																	-184.13005	504.83847	2454.97095							
39	0.380																																																	-183.91940	504.80438	2454.64673							
40	0.390																																																	-184.70511	504.39249	2451.23657							
41	0.400																																																	-184.47456	504.26199	2451.02563							
42	0.410																																																	-184.23944	504.20569	2450.53369							
43	0.420																																																	-183.89404	504.25616	2450.01440							
44	0.430																																																	-183.32469	503.64172	2449.06567							
45	0.440																																																	-183.15813	503.60284	2448.80200							
46	0.450																																																	-183.03423	503.55743	2448.40601							
47	0.460																																																	-182.93832	503.01166	2447.27148							
48	0.470																																																	-182.57228	503.16174	2446.50171							
49	0.480																																																	-182.44148	503.16406	2446.24048							
50	0.490																																																	-182.40710	502.90411	2444.68604							
51	0.500																																																	-182.23146	502.83963	2444.54712							
52	0.510																																																	-181.80301	502.98734	2443.69873							
53	0.520																																																	-181.51936	503.23578	2442.69702							
54	0.530																																																	-181.34595	503.08807	2442.52344							
55	0.540																																																	-181.02869	503.04816	2442.01367							
56	0.550																																																	-180.68170	503.08060	2441.38306							
57	0.560																																																	-180.40727	503.28348	2440.60083							
58	0.570																																																	-180.32300	503.37524	2440.06519							
59	0.580																																																	-180.06165	502.79483	2438.36914							
60	0.590																																																	-180.40466	502.51779	2436.09717							
61	0.600																																																	-180.58784	502.71622	2434.34375							
